<svg xmlns="http://www.w3.org/2000/svg" width="26.657" height="28.375" viewBox="0 0 26.657 28.375">
  <defs>
    <style>
      .cls-1 {
        fill: #b8b8b8;
        fill-rule: evenodd;
      }
    </style>
  </defs>
  <path class="cls-1" d="M600.72,289.622l-1.322-.565a7.836,7.836,0,0,1,4.949-4.434L604.762,286A6.4,6.4,0,0,0,600.72,289.622Zm7.437,13.711h-7.225a0.719,0.719,0,0,1-.719-0.719v-6.77a7.857,7.857,0,1,1,8.682,0v3.231a0.736,0.736,0,0,1-.018.164v3.375A0.719,0.719,0,0,1,608.157,303.333Zm-6.5-1.438h5.786v-2.1h-5.786v2.1Zm0-3.539h5.8v-2.909a0.717,0.717,0,0,1,.354-0.619,6.417,6.417,0,1,0-6.513,0,0.721,0.721,0,0,1,.354.62v2.909Zm4.475,7.86h-3.164a0.719,0.719,0,0,1-.719-0.719v-2.883a0.719,0.719,0,0,1,.719-0.719h3.164a0.719,0.719,0,0,1,.719.719V305.5A0.719,0.719,0,0,1,606.127,306.216Zm-2.445-1.438h1.726v-1.445h-1.726v1.445Zm6.747-23.157-1.017-1.017,2.764-2.763,1.016,1.017Zm-12.223,0-2.763-2.763,1.017-1.017,2.763,2.763Zm19.722,7.33h-3.842v-1.438h3.842v1.438Zm-23.187,0h-3.47v-1.438h3.47v1.438Z" transform="translate(-591.281 -277.844)"/>
</svg>
