<svg style="position: absolute; width: 0; height: 0;" width="0" height="0" version="1.1" xmlns="http://www.w3.org/2000/svg" xmlns:xlink="http://www.w3.org/1999/xlink">
<defs>
<symbol id="icon-arrow-left" viewBox="0 0 15 32">
<title>arrow-left</title>
<path fill="#fff" class="path1 fill-color5" d="M14.299-0.009c0.297 0.001 0.569 0.111 0.777 0.293 0.238 0.212 0.388 0.521 0.388 0.865 0 0.299-0.113 0.571-0.299 0.776l-12.456 13.988 12.466 14.162c0.175 0.203 0.282 0.469 0.282 0.761 0 0.644-0.522 1.166-1.166 1.166-0.343 0-0.652-0.148-0.866-0.385l-13.151-14.948c-0.178-0.204-0.286-0.472-0.286-0.765 0-0.298 0.112-0.571 0.296-0.777l13.149-14.745c0.209-0.241 0.516-0.392 0.858-0.392 0.003 0 0.006 0 0.009 0z"></path>
</symbol>
<symbol id="icon-arrow-right" viewBox="0 0 16 32">
<title>arrow-right</title>
<path fill="#fff" class="path1 fill-color5" d="M1.186 32.009c-0.005 0-0.012 0-0.018 0-0.292 0-0.558-0.111-0.758-0.293-0.239-0.214-0.39-0.524-0.39-0.87 0-0.296 0.11-0.566 0.292-0.772l12.465-13.979-12.466-14.172c-0.186-0.205-0.3-0.479-0.3-0.779 0-0.641 0.519-1.16 1.16-1.16 0.353 0 0.668 0.157 0.881 0.405l13.151 14.939c0.183 0.204 0.294 0.474 0.294 0.771s-0.112 0.567-0.295 0.772l-13.149 14.754c-0.213 0.236-0.519 0.383-0.86 0.383-0.002 0-0.005 0-0.007-0z"></path>
</symbol>
<symbol id="icon-clock" viewBox="0 0 32 32">
<title>clock</title>
<path class="path1" d="M27.179 27.186c-2.859 2.855-6.807 4.621-11.166 4.621-8.728 0-15.803-7.075-15.803-15.803s7.075-15.803 15.803-15.803c8.728 0 15.803 7.075 15.803 15.803 0 0.014 0 0.031 0 0.047 0 4.353-1.773 8.292-4.636 11.135zM25.852 6.148c-2.521-2.519-6.003-4.077-9.848-4.077-7.695 0-13.932 6.238-13.932 13.932s6.238 13.932 13.932 13.932c7.694 0 13.932-6.237 13.932-13.931 0-0.010 0-0.023 0-0.035 0-3.838-1.561-7.312-4.083-9.821zM23.862 16.475l-7.77 0.096c-0.034-0.001-0.067-0.006-0.098-0.015l-0.012 0.001c-0.028-0.006-0.053-0.016-0.075-0.030-0.011 0-0.022-0.005-0.029-0.014-0.023-0.008-0.042-0.017-0.060-0.030l-0.021-0.022c-0.019-0.013-0.036-0.028-0.051-0.044l-0.008-0.008-7.607-8.507c-0.076-0.082-0.123-0.193-0.123-0.314 0-0.139 0.062-0.264 0.16-0.349 0.084-0.074 0.193-0.118 0.313-0.118 0.139 0 0.263 0.059 0.35 0.154l7.468 8.352 7.556-0.096c0.258 0.001 0.467 0.207 0.472 0.464-0 0.26-0.206 0.471-0.464 0.48z"></path>
</symbol>
<symbol id="icon-close" viewBox="0 0 32 32">
<title>close</title>
<path fill="#c8c8c8" class="path1 fill-color4" d="M24.638 30.738l-8.651-8.651-8.624 8.624c-0.782 0.788-1.865 1.275-3.062 1.275-2.382 0-4.314-1.931-4.314-4.314 0-1.197 0.488-2.28 1.275-3.062l8.625-8.625-8.624-8.624c-0.752-0.776-1.216-1.836-1.216-3.004 0-2.385 1.934-4.319 4.319-4.319 1.165 0 2.222 0.461 2.999 1.211l8.623 8.636 8.638-8.638c0.782-0.788 1.865-1.275 3.062-1.275 2.382 0 4.314 1.931 4.314 4.314 0 1.197-0.488 2.28-1.275 3.062l-8.638 8.638 8.651 8.651c0.788 0.782 1.275 1.865 1.275 3.062 0 2.382-1.931 4.314-4.314 4.314-1.197 0-2.28-0.488-3.062-1.275z"></path>
</symbol>
<symbol id="icon-levels" viewBox="0 0 23 32">
<title>levels</title>
<path class="path1" d="M21.845 0c0 0 0 0 0 0 0.787 0 1.425 0.638 1.425 1.425v29.15c0 0.789-0.64 1.429-1.429 1.429s-1.429-0.64-1.429-1.429v-29.15c0.004-0.788 0.643-1.425 1.431-1.425 0.001 0 0.001 0 0.002 0zM10.21 9.313v21.27c0 0.789 0.64 1.429 1.429 1.429s1.429-0.64 1.429-1.429c0 0 0 0 0 0v-21.27c0-0.789-0.64-1.429-1.429-1.429s-1.429 0.64-1.429 1.429c0 0 0 0 0 0zM1.425 15.744c0 0 0 0 0 0 0.787 0 1.425 0.638 1.425 1.425v13.406c0 0 0 0 0 0 0 0.787-0.638 1.425-1.425 1.425s-1.425-0.638-1.425-1.425c0 0 0 0 0 0v-13.406c0-0.787 0.638-1.425 1.425-1.425z"></path>
</symbol>
<symbol id="icon-lock" viewBox="0 0 27 32">
<title>lock</title>
<path fill="#a7a7a7" class="path1 fill-color2" d="M25.078 32h-23.178c-1.054-0.001-1.909-0.856-1.91-1.91v-16.296c0.002-1.050 0.853-1.9 1.903-1.9 0.002 0 0.005 0 0.007 0h1.014v-1.319c0 0 0 0 0 0 0-5.84 4.734-10.575 10.575-10.575s10.575 4.734 10.575 10.575c0 0 0 0 0 0v1.319h1.014c0.002 0 0.004 0 0.007 0 1.050 0 1.902 0.85 1.903 1.9v16.296c-0.001 1.055-0.856 1.909-1.91 1.91zM20.254 10.575c0 0 0 0 0 0 0-3.736-3.028-6.764-6.764-6.764s-6.764 3.028-6.764 6.764c0 0 0 0 0 0v1.319h13.529v-1.319zM13.588 16.994c-0.001 0-0.002 0-0.003 0-1.597 0-2.891 1.294-2.891 2.891 0 1.124 0.641 2.098 1.594 2.584v3.554h2.481l0.018-3.503c0.999-0.456 1.694-1.463 1.694-2.633 0-1.598-1.295-2.893-2.893-2.893-0 0-0 0-0.001 0z"></path>
</symbol>
<symbol id="icon-nav-community" viewBox="0 0 59 32">
<title>nav-community</title>
<path fill="#b8b8b8" class="path1 fill-color3" d="M40.442 31.602c0.832-0.009 1.504-0.687 1.504-1.521 0-0.004-0-0.009-0-0.012v-2.051c-0-0.194-0.108-0.362-0.269-0.45l-11.252-6.584c-0.074-0.041-0.158-0.064-0.249-0.064-0.283 0-0.512 0.229-0.512 0.512 0 0.193 0.107 0.361 0.266 0.45l10.99 6.451-0 1.746c0 0.005 0 0.011 0 0.016 0 0.268-0.212 0.487-0.479 0.497l-27.737-0c-0.266-0.013-0.477-0.233-0.477-0.502 0-0.003 0-0.007 0-0.010v-1.747l11.008-6.452c0.158-0.087 0.264-0.255 0.264-0.448 0-0.283-0.229-0.512-0.512-0.512-0.090 0-0.174 0.023-0.245 0.063l-11.274 6.586c-0.159 0.086-0.266 0.254-0.266 0.448v2.049c-0 0.005-0 0.010-0 0.016 0 0.834 0.67 1.511 1.502 1.521h27.736zM30.175 21.939c-0.003 0-0.005 0-0.008 0-0.283 0-0.512-0.229-0.512-0.512 0-0.187 0.1-0.35 0.249-0.44 3.783-2.258 3.835-8.294 3.835-8.355v-5.804c-0.554-3.159-4.179-5.362-7.122-5.383h-0.050c-2.956 0-6.612 2.209-7.167 5.375v5.807c0 0.059 0.052 5.93 3.862 8.359 0.143 0.092 0.237 0.251 0.237 0.432 0 0.283-0.229 0.512-0.512 0.512-0.102 0-0.198-0.030-0.277-0.082-4.285-2.732-4.335-8.958-4.335-9.222v-5.851c0-0.030 0.003-0.059 0.007-0.087 0.967-3.637 4.233-6.275 8.115-6.275 0.008 0 0.015 0 0.023 0h0.046c0.019-0 0.042-0 0.065-0 3.884 0 7.152 2.64 8.108 6.223 0.018 0.083 0.021 0.112 0.021 0.141 0 0 0 0 0 0.001v5.848c0 0.269-0.048 6.676-4.333 9.234-0.072 0.046-0.159 0.075-0.252 0.078zM8.607 31.606c0.031 0.006 0.062 0.009 0.094 0.009 0.284 0 0.513-0.23 0.513-0.513s-0.23-0.513-0.513-0.513c-0.032 0-0.063 0.003-0.090 0.008l-6.696-0c-0.265-0.010-0.476-0.228-0.476-0.495 0-0.006 0-0.012 0-0.016v-1.747l11.006-6.452c0.158-0.087 0.264-0.255 0.264-0.448 0-0.283-0.229-0.512-0.512-0.512-0.090 0-0.174 0.023-0.245 0.063l-11.274 6.586c-0.158 0.086-0.266 0.254-0.266 0.448v2.049c-0 0.005-0 0.010-0 0.016 0 0.834 0.67 1.511 1.502 1.521h6.695zM12.197 21.939c-0.1-0.001-0.193-0.031-0.271-0.082-4.285-2.732-4.333-8.958-4.333-9.222v-5.851c-0.001-0.012-0.001-0.027-0.001-0.042s0.001-0.029 0.002-0.044c0.968-3.638 4.234-6.277 8.117-6.277 0.008 0 0.015 0 0.023 0h0.046c0.993 0.007 1.941 0.188 2.819 0.512 0.143 0.054 0.284 0.243 0.284 0.464 0 0.283-0.229 0.512-0.512 0.512-0.061 0-0.12-0.011-0.174-0.030-0.702-0.262-1.517-0.42-2.368-0.433l-0.049-0c-2.957 0-6.613 2.209-7.167 5.375v5.807c0 0.059 0.054 5.93 3.862 8.359 0.147 0.092 0.244 0.253 0.244 0.437 0 0.284-0.23 0.513-0.513 0.513-0.002 0-0.005-0-0.008-0zM41.519 19.399c0.001 0 0.001 0 0.002 0 0.134 0 0.256-0.047 0.352-0.126l5.205-4.165h7.307c2.088-0.002 3.779-1.694 3.782-3.781v-6.432c-0.002-2.088-1.694-3.779-3.781-3.782h-12.866c-2.088 0.002-3.779 1.694-3.782 3.781v6.433c0.002 2.088 1.694 3.779 3.781 3.782h0.348l-0.896 3.587c-0.011 0.041-0.017 0.088-0.017 0.137 0 0.312 0.253 0.565 0.565 0.566zM54.041 2.551c1.386 0.002 2.509 1.125 2.51 2.51v6.089c-0.002 1.385-1.125 2.507-2.51 2.508h-7.104c-0.127 0-0.244 0.045-0.336 0.119l-3.834 3.067 0.63-2.52c0.011-0.040 0.017-0.087 0.017-0.134 0-0.297-0.24-0.537-0.537-0.538h-1.013c-1.385-0.001-2.508-1.123-2.51-2.507v-6.089c0.002-1.386 1.125-2.509 2.51-2.51h12.177z"></path>
</symbol>
<symbol id="icon-nav-diary" viewBox="0 0 34 32">
<title>nav-diary</title>
<path fill="#b8b8b8" class="path1 fill-color3" d="M25.751 20.347h-24.904c-0.293 0-0.531-0.238-0.531-0.531v-18.955c0-0.293 0.238-0.531 0.531-0.531h21.926c0.062-0.004 0.134-0.006 0.206-0.006 1.74 0 3.168 1.341 3.305 3.045l0.001 16.442c0 0.001 0 0.003 0 0.004 0 0.293-0.238 0.531-0.531 0.531-0.001 0-0.003 0-0.004-0zM1.377 19.286h23.845v-15.896c-0.137-1.131-1.091-1.999-2.247-1.999-0.073 0-0.145 0.003-0.215 0.010l-21.382-0.001v17.896zM22.768 31.65h-21.921c-0.293 0-0.531-0.238-0.531-0.531v-11.203c0-0.293 0.238-0.531 0.531-0.531h24.904c0.293 0 0.531 0.238 0.531 0.531v8.676c-0.135 1.72-1.564 3.065-3.307 3.065-0.071 0-0.142-0.002-0.211-0.007zM1.377 30.589h21.397c0.062 0.006 0.134 0.009 0.206 0.009 1.157 0 2.111-0.868 2.246-1.988l0.001-8.162h-23.85v10.145zM22.467 31.122v-30.26h-1.061v30.257h1.061zM13.524 26.020v-1.061h-9.924v1.061h9.924zM17.14 28.541v-1.061h-13.539v1.061h13.537zM32.881 5.433c0.292-0.001 0.528-0.238 0.528-0.531 0-0.079-0.017-0.154-0.047-0.218l-1.836-4.045c-0.084-0.181-0.268-0.307-0.481-0.307-0 0-0 0-0 0h-0c-0.213 0.001-0.396 0.126-0.481 0.31l-1.834 4.038c-0.031 0.067-0.048 0.142-0.048 0.221 0 0.292 0.236 0.529 0.528 0.531h3.672zM31.045 2.14l1.013 2.232h-2.027zM32.881 27.917h-3.672c-0.293 0-0.531-0.238-0.531-0.531v-22.483c0-0.293 0.238-0.531 0.531-0.531h3.672c0.293 0 0.531 0.238 0.531 0.531v22.487c-0.001 0.292-0.238 0.529-0.531 0.529 0 0 0 0 0 0zM29.738 26.856h2.613v-21.423h-2.613v21.435zM32.881 31.646h-3.672c-0.293 0-0.531-0.238-0.531-0.531v-3.731c0-0.293 0.238-0.531 0.531-0.531h3.672c0.293 0 0.531 0.238 0.531 0.531v3.731c0 0.002 0 0.003 0 0.005 0 0.293-0.238 0.531-0.531 0.531 0 0-0 0-0 0zM29.738 30.585h2.613v-2.673h-2.613v2.673zM31.574 29.256v-14.344h-1.061v14.337h1.061z"></path>
</symbol>
<symbol id="icon-nav-notif-dot" viewBox="0 0 32 32">
<title>nav-notif-dot</title>
<path fill="#ff3963" class="path1 fill-color1" d="M15.937 2.546c0.011-0 0.025-0 0.038-0 7.433 0 13.458 6.025 13.458 13.458s-6.025 13.458-13.458 13.458c-7.433 0-13.458-6.025-13.458-13.458 0-0.006 0-0.013 0-0.020 0-7.415 6.006-13.427 13.419-13.437z"></path>
</symbol>
<symbol id="icon-nav-notif" viewBox="0 0 30 32">
<title>nav-notif</title>
<path fill="#b8b8b8" class="path1 fill-color3" d="M10.663 13.236c0.832-1.916 2.472-3.401 4.54-4.038l-0.531-1.536c-2.47 0.763-4.477 2.581-5.519 4.984l1.491 0.637zM19.032 28.745h-8.148c0 0 0 0 0 0-0.448 0-0.811-0.363-0.811-0.811v-7.635c-2.404-1.61-3.965-4.316-3.965-7.386 0-4.894 3.967-8.861 8.861-8.861s8.861 3.967 8.861 8.861c0 3.070-1.561 5.775-3.933 7.365l-0.032 3.664c0 0.001 0 0.002 0 0.003 0 0.065-0.007 0.128-0.021 0.188l0.001 3.801c0 0 0 0 0 0 0 0.448-0.363 0.811-0.811 0.811-0 0-0.001 0-0.001 0zM11.702 27.124h6.525v-2.368h-6.525v2.368zM11.702 23.132h6.541v-3.281c0-0 0-0 0-0.001 0-0.296 0.159-0.554 0.395-0.695 2.152-1.284 3.568-3.595 3.568-6.238 0-3.997-3.24-7.237-7.237-7.237s-7.237 3.24-7.237 7.237c0 2.642 1.416 4.954 3.531 6.217 0.274 0.162 0.432 0.421 0.432 0.717v3.281zM16.742 31.997c0.002 0 0.004 0 0.006 0 0.447 0 0.809-0.361 0.811-0.808v-3.255c0-0.448-0.363-0.811-0.811-0.811 0 0 0 0 0 0h-3.568c0 0 0 0 0 0-0.448 0-0.811 0.363-0.811 0.811v3.251c0 0.448 0.363 0.811 0.811 0.811 0 0 0 0 0 0h3.568zM13.991 30.375v-1.63h1.947v1.63h-1.947zM21.6 4.26l-1.147-1.147 3.117-3.116 1.146 1.147zM7.815 4.26l-3.116-3.116 1.147-1.147 3.116 3.116zM30.057 12.526h-4.333v-1.622h4.333v1.622zM3.908 12.526h-3.913v-1.622h3.913v1.622z"></path>
</symbol>
<symbol id="icon-nav-trophy" viewBox="0 0 39 32">
<title>nav-trophy</title>
<path fill="#b8b8b8" class="path1 fill-color3" d="M30.47 10.065c0.001 0 0.003 0 0.004 0 0.357 0 0.646-0.289 0.646-0.646 0 0 0 0 0 0v-8.504c0-0.357-0.289-0.646-0.646-0.646h-21.866c-0.357 0-0.646 0.289-0.646 0.646l0 8.501c-0.002 0.022-0.003 0.045-0.003 0.067 0 0.357 0.289 0.646 0.646 0.646s0.646-0.289 0.646-0.646c0-0.023-0.001-0.045-0.003-0.065v-7.86h20.576v7.86c0 0.357 0.289 0.646 0.646 0.646zM19.538 20.855c6.389-0.007 11.568-5.186 11.575-11.573 0.003-0.024 0.004-0.049 0.004-0.074 0-0.357-0.289-0.646-0.646-0.646s-0.646 0.289-0.646 0.646c0 0.025 0.001 0.050 0.004 0.077-0.065 5.627-4.647 10.169-10.29 10.169s-10.225-4.542-10.29-10.172c0.002-0.022 0.003-0.045 0.003-0.067 0-0.357-0.289-0.646-0.646-0.646s-0.646 0.289-0.646 0.646c0 0.023 0.001 0.045 0.003 0.065 0.008 6.389 5.186 11.567 11.576 11.575zM24.679 28.526c0 0 0 0 0 0 0.357 0 0.646-0.289 0.646-0.646s-0.289-0.646-0.646-0.646c0 0 0 0 0 0h-10.287c-0.357 0-0.646 0.289-0.646 0.646s0.289 0.646 0.646 0.646h10.289zM30.598 12.494c-0.357 0-0.646-0.289-0.646-0.646s0.289-0.646 0.646-0.646c3.121 0 6.723-3.324 7.050-7.718h-7.050c-0.357 0-0.646-0.289-0.646-0.646s0.289-0.646 0.646-0.646h7.717c0.357 0 0.646 0.289 0.646 0.646-0.004 4.472-3.655 9.658-8.364 9.658zM8.604 12.494c-4.708 0-8.36-5.186-8.36-9.647 0-0.357 0.289-0.646 0.646-0.646h7.716c0.357 0 0.646 0.289 0.646 0.646s-0.289 0.646-0.646 0.646h-7.050c0.326 4.396 3.931 7.717 7.050 7.717 0.023-0.003 0.049-0.004 0.075-0.004 0.357 0 0.646 0.289 0.646 0.646s-0.289 0.646-0.646 0.646c-0.027 0-0.054-0.002-0.081-0.005zM19.537 28.526c-0.357 0-0.646-0.289-0.646-0.646v-7.111c-0.002-0.021-0.004-0.046-0.004-0.071 0-0.357 0.289-0.646 0.646-0.646s0.646 0.289 0.646 0.646c0 0.025-0.001 0.049-0.004 0.074l0 7.108c0 0 0 0 0 0 0 0.354-0.285 0.642-0.638 0.646zM28.541 31.741c0.357 0 0.646-0.289 0.646-0.646s-0.289-0.646-0.646-0.646h-18.007c-0.357 0-0.646 0.289-0.646 0.646s0.289 0.646 0.646 0.646h18.007z"></path>
</symbol>
</defs>
</svg>
