<svg xmlns="http://www.w3.org/2000/svg" width="43.4" height="43.41" viewBox="0 0 43.4 43.41">
  <defs>
    <style>
      .cls-1 {
        fill: #454545;
        stroke: #454545;
        stroke-width: 0.5px;
        fill-rule: evenodd;
      }
    </style>
  </defs>
  <path id="Time_icon" data-name="Time icon" class="cls-1" d="M7547.06,1225.44a21.438,21.438,0,1,1,6.29-15.17A21.284,21.284,0,0,1,7547.06,1225.44Zm-1.8-28.54a18.9,18.9,0,1,0,5.54,13.37A18.79,18.79,0,0,0,7545.26,1196.9Zm-2.7,14.01-10.54.13h0a0.507,0.507,0,0,1-.13-0.02h-0.02a0.3,0.3,0,0,1-.1-0.04,0.052,0.052,0,0,1-.04-0.02,0.3,0.3,0,0,1-.08-0.04l-0.03-.03a0.435,0.435,0,0,1-.07-0.06l-0.01-.01-10.32-11.54a0.626,0.626,0,0,1,.05-0.9,0.644,0.644,0,0,1,.9.05l10.13,11.33,10.24-.13h0.01a0.642,0.642,0,0,1,.64.63A0.651,0.651,0,0,1,7542.56,1210.91Z" transform="translate(-7510.19 -1188.56)"/>
</svg>
