<svg xmlns="http://www.w3.org/2000/svg" width="29.56" height="40.65" viewBox="0 0 29.56 40.65">
  <defs>
    <style>
      .cls-1 {
        fill: #454545;
        fill-rule: evenodd;
      }
    </style>
  </defs>
  <path id="Levels_icon" data-name="Levels icon" class="cls-1" d="M7464.66,1185.44a1.81,1.81,0,0,1,1.81,1.81v37.03a1.815,1.815,0,0,1-3.63,0v-37.03A1.818,1.818,0,0,1,7464.66,1185.44Zm-14.78,11.83v27.02a1.815,1.815,0,1,0,3.63,0v-27.02A1.815,1.815,0,1,0,7449.88,1197.27Zm-11.16,8.17a1.81,1.81,0,0,1,1.81,1.81v17.03a1.81,1.81,0,1,1-3.62,0v-17.03A1.81,1.81,0,0,1,7438.72,1205.44Z" transform="translate(-7436.91 -1185.44)"/>
</svg>
