<svg xmlns="http://www.w3.org/2000/svg" width="27.41" height="32.5" viewBox="0 0 27.41 32.5">
  <defs>
    <style>
      .cls-1 {
        fill: #a7a7a7;
        fill-rule: evenodd;
      }
    </style>
  </defs>
  <path id="Rounded_Rectangle_23" data-name="Rounded Rectangle 23" class="cls-1" d="M7010.97,1474.5h-23.54a1.942,1.942,0,0,1-1.94-1.94v-16.55a1.933,1.933,0,0,1,1.94-1.93h1.03v-1.34a10.74,10.74,0,1,1,21.48,0v1.34h1.03a1.933,1.933,0,0,1,1.94,1.93v16.55A1.942,1.942,0,0,1,7010.97,1474.5Zm-4.9-21.76a6.87,6.87,0,1,0-13.74,0v1.34h13.74v-1.34Zm-6.77,6.52a2.938,2.938,0,0,1,1.2,5.62v3.55h-2.52v-3.61A2.936,2.936,0,0,1,6999.3,1459.26Z" transform="translate(-6985.5 -1442)"/>
</svg>
