<svg xmlns="http://www.w3.org/2000/svg" width="43.594" height="23.812" viewBox="0 0 43.594 23.812">
  <defs>
    <style>
      .cls-1 {
        fill: #b8b8b8;
        stroke: #b8b8b8;
        stroke-width: 0.6px;
        fill-rule: evenodd;
      }
    </style>
  </defs>
  <path class="cls-1" d="M535.124,304.454H514.485a1.132,1.132,0,0,1-1.118-1.143v-1.525a0.379,0.379,0,0,1,.2-0.334l8.387-4.9a0.381,0.381,0,1,1,.365.669l-8.189,4.8v1.3a0.374,0.374,0,0,0,.356.381h20.639a0.37,0.37,0,0,0,.356-0.381v-1.3l-8.178-4.8a0.381,0.381,0,1,1,.366-0.669l8.375,4.9a0.381,0.381,0,0,1,.2.335v1.526A1.132,1.132,0,0,1,535.124,304.454Zm-7.639-7.191a0.381,0.381,0,0,1-.2-0.709c2.813-1.679,2.852-6.171,2.852-6.216l0-4.319c-0.412-2.351-3.11-3.99-5.3-4.006H524.8c-2.2,0-4.92,1.644-5.333,4l0,4.321c0,0.044.039,4.413,2.874,6.22a0.381,0.381,0,0,1-.41.643c-3.19-2.034-3.227-6.667-3.227-6.863l0-4.354a0.444,0.444,0,0,1,.005-0.062,6.239,6.239,0,0,1,6.055-4.672l0.035,0a6.244,6.244,0,0,1,6.092,4.674,0.318,0.318,0,0,1,.006.062l0,4.352c0,0.2-.036,4.968-3.224,6.871A0.373,0.373,0,0,1,527.485,297.263Zm-16.047,7.194h0l-4.982,0a1.132,1.132,0,0,1-1.118-1.143v-1.525a0.379,0.379,0,0,1,.2-0.334l8.387-4.9a0.381,0.381,0,1,1,.365.669l-8.188,4.8v1.3a0.369,0.369,0,0,0,.355.381l4.982,0A0.382,0.382,0,1,1,511.438,304.457Zm2.669-7.194a0.378,0.378,0,0,1-.2-0.06c-3.19-2.034-3.226-6.667-3.226-6.863l0-4.354a0.444,0.444,0,0,1,0-.062,6.24,6.24,0,0,1,6.056-4.672l0.035,0a6.186,6.186,0,0,1,2.055.367,0.381,0.381,0,1,1-.254.719,5.449,5.449,0,0,0-1.769-.323h-0.032c-2.2,0-4.921,1.644-5.333,4l0,4.321c0,0.044.04,4.413,2.874,6.22A0.382,0.382,0,0,1,514.107,297.263Zm21.819-1.89a0.414,0.414,0,0,0,.263-0.093l3.874-3.1H545.5a2.817,2.817,0,0,0,2.814-2.814V284.58a2.817,2.817,0,0,0-2.814-2.814h-9.574a2.817,2.817,0,0,0-2.814,2.814v4.787a2.817,2.817,0,0,0,2.814,2.814h0.259l-0.667,2.669A0.421,0.421,0,0,0,535.926,295.373Zm9.318-12.537a1.87,1.87,0,0,1,1.868,1.868v4.531a1.869,1.869,0,0,1-1.868,1.866h-5.286a0.4,0.4,0,0,0-.249.088l-2.854,2.283,0.469-1.875a0.4,0.4,0,0,0-.387-0.5h-0.754a1.869,1.869,0,0,1-1.868-1.866V284.7a1.87,1.87,0,0,1,1.868-1.868h9.061Z" transform="translate(-505.031 -280.938)"/>
</svg>
