<svg xmlns="http://www.w3.org/2000/svg" width="25.438" height="24.125" viewBox="0 0 25.438 24.125">
  <defs>
    <style>
      .cls-1 {
        fill: #b8b8b8;
        stroke: #b8b8b8;
        stroke-width: 0.5px;
        fill-rule: evenodd;
      }
    </style>
  </defs>
  <path class="cls-1" d="M451.945,295.684H433.17a0.4,0.4,0,0,1-.4-0.4v-14.29a0.4,0.4,0,0,1,.4-0.4H449.7a2.5,2.5,0,0,1,2.648,2.3v12.387A0.4,0.4,0,0,1,451.945,295.684Zm-18.376-.8h17.977V282.9a1.706,1.706,0,0,0-1.85-1.5H433.569v13.492Zm16.127,9.321H433.17a0.4,0.4,0,0,1-.4-0.4v-8.446a0.4,0.4,0,0,1,.4-0.4h18.775a0.4,0.4,0,0,1,.4.4V301.9A2.5,2.5,0,0,1,449.7,304.206Zm-16.127-.8H449.7a1.706,1.706,0,0,0,1.85-1.5V295.76H433.569v7.648Zm15.9,0.4h-0.8V280.994h0.8v22.813Zm-6.742-3.844h-7.482v-0.8h7.482v0.8Zm2.725,1.9H435.246v-0.8h10.207v0.8ZM457.32,284.44h-2.768a0.4,0.4,0,0,1-.363-0.564l1.384-3.047a0.4,0.4,0,0,1,.363-0.234h0a0.4,0.4,0,0,1,.364.234l1.383,3.047A0.4,0.4,0,0,1,457.32,284.44Zm-2.148-.8H456.7l-0.764-1.683Zm2.148,17.751h-2.768a0.4,0.4,0,0,1-.4-0.4V284.041a0.4,0.4,0,0,1,.4-0.4h2.768a0.4,0.4,0,0,1,.4.4v16.953A0.4,0.4,0,0,1,457.32,301.393Zm-2.369-.8h1.97V284.44h-1.97V300.6Zm2.369,3.611h-2.768a0.4,0.4,0,0,1-.4-0.4v-2.813a0.4,0.4,0,0,1,.4-0.4h2.768a0.4,0.4,0,0,1,.4.4v2.813A0.4,0.4,0,0,1,457.32,304.206Zm-2.369-.8h1.97v-2.015h-1.97v2.015Zm1.384-1.007h-0.8V291.586h0.8V302.4Z" transform="translate(-432.531 -280.344)"/>
</svg>
