<svg id="Layer_1" data-name="Layer 1" xmlns="http://www.w3.org/2000/svg" viewBox="0 0 137.09 285.23"><defs><style>.cls-1{fill:#20c4f4;}.cls-2{fill:#fff;}.cls-3{fill:#f79421;}.cls-4{fill:#ffd23a;}.cls-5{fill:#fdfae3;}.cls-6{fill:#e95555;}.cls-7{fill:#9a3b3b;}.cls-8{fill:#bee5e8;}.cls-9{fill:#4ec3c8;}</style></defs><title>rocket</title><path class="cls-1" d="M250.48,330.53a150.74,150.74,0,0,0,51.76-1l-3.44-97.41H254Z" transform="translate(-208.16 -47.09)"/><path class="cls-2" d="M266.81,332.15c2.26,0.1,4.53.16,6.81,0.16,4.14,0,8.25-.18,12.31-0.51l-3.52-99.65H270.35Z" transform="translate(-208.16 -47.09)"/><path class="cls-3" d="M257.37,260.2c0,19.07,19.34,34.52,19.34,34.52S296,279.27,296,260.2s-8.66-34.52-19.34-34.52S257.37,241.14,257.37,260.2Z" transform="translate(-208.16 -47.09)"/><path class="cls-4" d="M263.59,249.1c0,12.93,13.12,23.42,13.12,23.42S289.82,262,289.82,249.1s-5.87-23.42-13.12-23.42S263.59,236.16,263.59,249.1Z" transform="translate(-208.16 -47.09)"/><path class="cls-5" d="M268.41,240.49c0,8.18,8.29,14.81,8.29,14.81s8.29-6.63,8.29-14.81-3.71-14.81-8.29-14.81S268.41,232.31,268.41,240.49Z" transform="translate(-208.16 -47.09)"/><path class="cls-6" d="M307.29,230.09l-1.75-6.36H247.86l-1.75,6.36a1.64,1.64,0,0,0,1.52,2.07h58.13A1.64,1.64,0,0,0,307.29,230.09Z" transform="translate(-208.16 -47.09)"/><path class="cls-7" d="M305.77,232.16a1.64,1.64,0,0,0,1.52-2.07l-1.75-6.36H292.45c0,3.37,0,6.14,0,8.43h13.32Z" transform="translate(-208.16 -47.09)"/><path class="cls-6" d="M236.28,178c-38.07,23.65-40.2,51.51,10.38,40Z" transform="translate(-208.16 -47.09)"/><path class="cls-6" d="M317.12,178c38.07,23.65,40.2,51.51-10.38,40Z" transform="translate(-208.16 -47.09)"/><path class="cls-7" d="M325.13,183.37q-3.69-2.73-8-5.42l-10.38,40q4.67,1.06,8.75,1.69A85.55,85.55,0,0,0,325.13,183.37Z" transform="translate(-208.16 -47.09)"/><path class="cls-2" d="M305.54,223.73s15.73-13.76,15.73-81.27c0-73.08-40.31-95.37-44.57-95.37s-44.57,22.28-44.57,95.37c0,67.51,15.73,81.27,15.73,81.27h57.68Z" transform="translate(-208.16 -47.09)"/><path class="cls-8" d="M282.44,49.65c13.73,11.07,25.72,54,25.72,93.78,0,45.84-7.07,69-15.71,80.29h13.09s15.73-13.76,15.73-81.27C321.27,83.14,294.72,57.29,282.44,49.65Z" transform="translate(-208.16 -47.09)"/><path class="cls-6" d="M239.26,94.36h74.89c-1.07-3.19-2.22-6.19-3.44-9h-68C241.48,88.17,240.33,91.16,239.26,94.36Z" transform="translate(-208.16 -47.09)"/><path class="cls-7" d="M310.71,85.35H300.33c0.81,2.91,1.57,5.92,2.27,9h11.55C313.08,91.17,311.93,88.17,310.71,85.35Z" transform="translate(-208.16 -47.09)"/><circle class="cls-7" cx="68.54" cy="42.77" r="3.28"/><circle class="cls-7" cx="88.21" cy="42.77" r="3.28"/><circle class="cls-7" cx="48.88" cy="42.77" r="3.28"/><circle class="cls-6" cx="68.54" cy="91.6" r="31.4"/><circle class="cls-7" cx="295.52" cy="119.86" r="3.49" transform="translate(-206.36 196.99) rotate(-45)"/><circle class="cls-7" cx="95.16" cy="91.6" r="3.49"/><circle class="cls-7" cx="295.52" cy="157.5" r="3.49" transform="translate(-232.97 208.01) rotate(-45)"/><circle class="cls-7" cx="68.54" cy="118.21" r="3.49"/><circle class="cls-7" cx="257.88" cy="157.5" r="3.49" transform="translate(-244 181.4) rotate(-45)"/><circle class="cls-7" cx="41.93" cy="91.6" r="3.49"/><circle class="cls-7" cx="257.88" cy="119.86" r="3.49" transform="translate(-217.38 170.37) rotate(-45)"/><circle class="cls-7" cx="68.54" cy="64.98" r="3.49"/><circle class="cls-9" cx="68.54" cy="91.6" r="21.81"/><ellipse class="cls-8" cx="58.08" cy="91.6" rx="6.11" ry="13.08"/></svg>